<?xml version="1.0" encoding="UTF-8"?>
<svg xmlns="http://www.w3.org/2000/svg" xmlns:xlink="http://www.w3.org/1999/xlink" width="30px" height="30px" viewBox="0 0 30 30" version="1.1">
<defs>
<linearGradient id="linear0" gradientUnits="userSpaceOnUse" x1="0" y1="0" x2="100" y2="100" gradientTransform="matrix(0.3,0,0,0.3,0,0)">
<stop offset="0" style="stop-color:rgb(29.803922%,44.313725%,55.686275%);stop-opacity:1;"/>
<stop offset="1" style="stop-color:rgb(16.862745%,25.098039%,32.54902%);stop-opacity:1;"/>
</linearGradient>
<linearGradient id="linear1" gradientUnits="userSpaceOnUse" x1="41.554" y1="30.347" x2="82.712" y2="71.539" gradientTransform="matrix(0.3,0,0,0.3,0,0)">
<stop offset="0" style="stop-color:rgb(100%,100%,100%);stop-opacity:0.85098;"/>
<stop offset="1" style="stop-color:rgb(100%,100%,100%);stop-opacity:0;"/>
</linearGradient>
<linearGradient id="linear2" gradientUnits="userSpaceOnUse" x1="41.554" y1="30.347" x2="82.712" y2="71.539" gradientTransform="matrix(0.3,0,0,0.3,0,0)">
<stop offset="0" style="stop-color:rgb(100%,100%,100%);stop-opacity:0.85098;"/>
<stop offset="1" style="stop-color:rgb(100%,100%,100%);stop-opacity:0;"/>
</linearGradient>
</defs>
<g id="surface1">
<path style=" stroke:none;fill-rule:nonzero;fill:url(#linear0);" d="M 15 30 C 23.285156 30 30 23.285156 30 15 C 30 6.714844 23.285156 0 15 0 C 6.714844 0 0 6.714844 0 15 C 0 23.285156 6.714844 30 15 30 Z M 15 30 "/>
<path style=" stroke:none;fill-rule:nonzero;fill:url(#linear1);" d="M 26.015625 25.183594 C 23.273438 28.144531 19.355469 30 15 30 C 10.582031 30 6.609375 28.089844 3.863281 25.046875 C 4.226562 24.121094 4.738281 23.277344 5.453125 22.578125 C 7.636719 20.445312 11.527344 19.570312 15 19.570312 C 18.464844 19.570312 22.097656 20.441406 24.28125 22.570312 C 25.035156 23.300781 25.601562 24.199219 26.015625 25.179688 Z M 26.015625 25.183594 "/>
<path style=" stroke:none;fill-rule:nonzero;fill:url(#linear2);" d="M 20.855469 11.132812 C 21.09375 7.46875 19.089844 4.453125 15.015625 4.453125 C 10.941406 4.453125 8.9375 7.46875 9.175781 11.132812 C 9.414062 14.796875 11.8125 17.34375 15.015625 17.34375 C 18.21875 17.34375 20.617188 14.796875 20.855469 11.132812 Z M 20.855469 11.132812 "/>
</g>
</svg>
